<?xml version="1.0" encoding="UTF-8" standalone="no"?>
<!-- Created with Inkscape (http://www.inkscape.org/) -->

<svg
   width="16.235689mm"
   height="20.317745mm"
   viewBox="0 0 16.235689 20.317745"
   version="1.1"
   id="svg5"
   xml:space="preserve"
   inkscape:version="1.2.2 (b0a8486541, 2022-12-01)"
   sodipodi:docname="dgwf_favicon.svg"
   inkscape:export-filename="../../../public/dgwf_favicon.png"
   inkscape:export-xdpi="153.78999"
   inkscape:export-ydpi="153.78999"
   xmlns:inkscape="http://www.inkscape.org/namespaces/inkscape"
   xmlns:sodipodi="http://sodipodi.sourceforge.net/DTD/sodipodi-0.dtd"
   xmlns="http://www.w3.org/2000/svg"
   xmlns:svg="http://www.w3.org/2000/svg">
    <sodipodi:namedview
   id="namedview7"
   pagecolor="#505050"
   bordercolor="#eeeeee"
   borderopacity="1"
   inkscape:showpageshadow="0"
   inkscape:pageopacity="0"
   inkscape:pagecheckerboard="0"
   inkscape:deskcolor="#505050"
   inkscape:document-units="mm"
   showgrid="false"
   inkscape:zoom="11.313709"
   inkscape:cx="40.791221"
   inkscape:cy="42.779958"
   inkscape:window-width="1866"
   inkscape:window-height="1333"
   inkscape:window-x="936"
   inkscape:window-y="328"
   inkscape:window-maximized="0"
   inkscape:current-layer="layer1" />
    <defs
   id="defs2"><inkscape:path-effect
     effect="powerstroke"
     id="path-effect848"
     is_visible="true"
     lpeversion="1"
     offset_points="5.0199854,1.1251415 | 9.0705021,0.29163408 | 4.045392,0.26291941 | 2.8691206,1.1416564"
     not_jump="false"
     sort_points="true"
     interpolator_type="CentripetalCatmullRom"
     interpolator_beta="0.25454545"
     start_linecap_type="zerowidth"
     linejoin_type="round"
     miter_limit="4"
     scale_width="1"
     end_linecap_type="zerowidth" /></defs>
    <g
   inkscape:label="Layer 1"
   inkscape:groupmode="layer"
   id="layer1"
   style="display:inline"
   transform="translate(-92.706589,-113.43331)">
        <path
   class="stroke_me"
   style="display:inline;fill:#ffffff;fill-opacity:1;fill-rule:nonzero;stroke:none;stroke-width:0.9;stroke-linecap:butt;stroke-linejoin:round;stroke-dasharray:none;stroke-dashoffset:0;stroke-opacity:1"
   d="m 94.153426,125.54574 c -0.05851,-0.0838 -0.125227,-0.19633 -0.173552,-0.31375 -0.0367,-0.0892 -0.06131,-0.17709 -0.07012,-0.26414 -0.0075,-0.0744 -0.0031,-0.14459 0.01013,-0.2183 0.01172,-0.0653 0.03186,-0.14204 0.0588,-0.23045 0.02346,-0.26282 0.04869,-0.65311 0.07445,-1.10861 0.02519,-0.44548 0.05074,-0.95079 0.07565,-1.45802 0.03986,-0.81164 0.03055,-0.62902 0.07042,-1.44067 0.02236,-0.44771 0.04163,-0.80981 0.05808,-1.06421 0.01663,-0.28825 0.06529,-0.50898 0.122055,-0.67765 0.06005,-0.17842 0.133396,-0.31091 0.201086,-0.41147 0.07566,-0.11241 0.158919,-0.2061 0.236908,-0.28564 0.04346,-0.0443 0.08735,-0.0863 0.130689,-0.1269 0.05166,-0.0484 0.104529,-0.0992 0.158125,-0.15089 0.517725,-0.32863 0.807389,-0.5104 1.4384,-0.91411 0.616602,-0.3945 1.124992,-0.72389 1.717635,-1.10796 0.584334,-0.37869 1.13323,-0.73429 1.591399,-1.02099 0.233281,-0.14598 0.444181,-0.27483 0.627441,-0.38195 0.13308,-0.0778 0.25094,-0.14373 0.35001,-0.19526 0.005,0.002 0.0101,0.005 0.0152,0.007 0.0882,0.0423 0.18927,0.0953 0.29904,0.15651 0.1862,0.10388 0.39374,0.2292 0.61681,0.37061 0.48202,0.30555 0.99336,0.65805 1.58109,1.05892 0.5519,0.37643 1.09288,0.74147 1.72854,1.14832 0.52797,0.33793 0.99211,0.6221 1.45905,0.90268 0.009,0.007 0.0173,0.0144 0.0261,0.0216 0.0893,0.0736 0.18178,0.15046 0.27077,0.23703 0.0801,0.0779 0.16396,0.16999 0.24,0.28149 0.0682,0.1 0.14169,0.23224 0.2016,0.41092 0.0562,0.1676 0.10454,0.38822 0.12035,0.67745 0.0154,0.25249 0.0334,0.61234 0.0545,1.06418 0.0117,0.25056 0.0537,1.19016 0.0654,1.44072 0.0225,0.4966 0.0462,1.00789 0.0693,1.45795 0.0228,0.4439 0.0457,0.84123 0.0668,1.10815 0.0235,0.0842 0.0414,0.15952 0.0513,0.22306 0.0104,0.0665 0.0141,0.13265 0.005,0.20675 -0.009,0.0764 -0.0321,0.15913 -0.072,0.25333 -0.0411,0.097 -0.0979,0.20017 -0.16873,0.31199 -0.0336,0.045 -0.087,0.11108 -0.15744,0.19513 -0.0713,0.0851 -0.15988,0.18847 -0.26263,0.30679 -0.2097,0.2415 -0.47905,0.54595 -0.78179,0.88512 -0.6344,0.71074 -1.43172,1.59212 -2.1743,2.40929 -0.81555,0.89747 -1.6183,1.77609 -2.19759,2.40798 -0.32766,0.35743 -0.60242,0.65621 -0.81127,0.8823 -0.11213,0.12138 -0.20599,0.22261 -0.28169,0.30378 -0.0805,0.0863 -0.13846,0.14782 -0.17752,0.18853 l 0.41493,9e-5 c -0.0201,-0.0191 -0.0455,-0.044 -0.075,-0.0736 -0.0305,-0.0306 -0.0654,-0.0661 -0.10377,-0.10552 -0.0101,-0.0103 -0.0203,-0.0209 -0.0308,-0.0318 -0.0724,-0.0749 -0.15742,-0.16376 -0.25278,-0.26418 -0.22449,-0.23643 -0.5057,-0.53624 -0.816975,-0.87044 -0.675632,-0.72539 -1.471978,-1.59019 -2.210303,-2.3985 -0.881724,-0.96531 -1.625552,-1.78938 -2.181891,-2.41378 -0.340648,-0.38232 -0.595127,-0.67189 -0.783151,-0.88876 -0.111982,-0.12916 -0.197702,-0.22943 -0.263551,-0.30738 -0.08047,-0.0953 -0.129559,-0.1552 -0.160154,-0.19302 z m -0.693289,0.65185 c 0.03567,0.0326 0.09241,0.0853 0.182422,0.17155 0.07371,0.0706 0.168352,0.16234 0.290317,0.28221 0.205222,0.2017 0.477413,0.47282 0.83844,0.83707 0.597041,0.60237 1.357455,1.37914 2.276701,2.32568 0.779528,0.80268 1.56348,1.61436 2.268758,2.34594 0.159528,0.16548 0.670679,0.69616 0.830205,0.86163 -0.0286,-0.0297 0.28435,0.29504 0.2557,0.26531 4e-4,4.2e-4 0.0308,0.0319 0.0312,0.0323 0.008,0.008 0.0975,0.10128 0.10509,0.10916 0.0533,0.0555 0.0245,0.0255 0.0779,0.081 a 0.28776426,0.30008843 46.213366 0 0 0.41493,9e-5 c 0.045,-0.043 0.10844,-0.10514 0.19271,-0.18894 0.08,-0.0796 0.17811,-0.17795 0.2951,-0.29598 0.22048,-0.22245 0.50033,-0.50691 0.84282,-0.8565 0.29585,-0.30198 1.98322,-2.03214 2.27906,-2.33412 0.76574,-0.78471 1.60798,-1.64671 2.27224,-2.31846 0.31965,-0.32326 0.60687,-0.61137 0.83467,-0.83573 0.11165,-0.10996 0.20931,-0.20489 0.2897,-0.2813 0.0794,-0.0754 0.14206,-0.13297 0.18457,-0.16889 0.11793,-0.0897 0.24035,-0.18665 0.35582,-0.2926 0.11302,-0.1037 0.22526,-0.22124 0.32766,-0.35931 0.10133,-0.13662 0.19097,-0.29057 0.26273,-0.46701 0.0711,-0.1748 0.12108,-0.36296 0.15003,-0.56544 0.0303,-0.28354 0.058,-0.6782 0.0837,-1.12927 0.026,-0.45453 0.05,-0.9656 0.0722,-1.46431 0.0318,-0.71507 0.0316,-0.72604 0.0634,-1.44111 0.0204,-0.44626 0.0391,-0.81317 0.0568,-1.05227 0.0195,-0.4679 -0.0203,-0.8915 -0.10983,-1.27484 -0.0966,-0.41352 -0.24877,-0.77025 -0.43491,-1.07403 -0.20686,-0.33759 -0.44972,-0.60025 -0.69031,-0.80002 -0.25978,-0.2157 -0.52094,-0.3617 -0.74791,-0.45634 -0.0224,-0.009 -0.0447,-0.0182 -0.0668,-0.0267 -0.49894,-0.21408 -1.08259,-0.43089 -1.65103,-0.62375 -0.70523,-0.23927 -1.37032,-0.43694 -1.99717,-0.61628 -0.6972,-0.19947 -1.27678,-0.35713 -1.83342,-0.52987 -0.25288,-0.0785 -0.4833,-0.15483 -0.68411,-0.2285 -0.11833,-0.0434 -0.22483,-0.0853 -0.31508,-0.12447 -0.05,-0.0217 -0.0937,-0.0419 -0.13088,-0.0605 a 0.23094626,0.28489979 51.323 0 0 -0.2149,-0.001 c -0.1225,0.049 -0.28831,0.10797 -0.48851,0.1751 -0.20293,0.068 -0.438915,0.14371 -0.702802,0.2267 -0.608053,0.19122 -1.204877,0.37326 -1.812931,0.56448 -0.635157,0.19984 -1.298616,0.41389 -1.957108,0.64003 -0.592605,0.20351 -1.167595,0.41235 -1.641101,0.60235 -0.143333,0.0485 -0.291453,0.11347 -0.439493,0.1989 -0.123474,0.0713 -0.253019,0.15878 -0.383249,0.26497 -0.24023,0.1959 -0.485483,0.45816 -0.693398,0.79588 -0.186956,0.30367 -0.339207,0.66044 -0.435428,1.07348 -0.08978,0.38539 -0.128406,0.80926 -0.108126,1.27438 0.01855,0.24084 0.03846,0.61042 0.06005,1.05249 0.01911,0.39142 0.04913,1.04973 0.06824,1.44116 0.02453,0.50895 0.05044,1.01485 0.07838,1.46424 0.02872,0.46202 0.05875,0.85082 0.09114,1.12938 0.03269,0.20666 0.08666,0.3914 0.157736,0.55748 0.07714,0.18025 0.17065,0.32972 0.267831,0.45546 0.110347,0.14278 0.227667,0.2576 0.329423,0.34851 0.121251,0.10833 0.279049,0.23173 0.350913,0.29083 z"
   id="flight"
   sodipodi:nodetypes="sssscsssscs"
   inkscape:path-effect="#path-effect848"
   inkscape:original-d="m 93.806781,125.87166 c -0.387522,-0.41216 -0.631051,-0.76432 -0.640328,-1.33946 -0.01779,-1.10287 -0.0049,-4.08432 -0.0096,-5.07941 -0.007,-1.47114 0.677834,-2.23477 1.454278,-2.63006 1.66222,-0.84624 5.2723,-2.52655 6.213419,-2.93942 0.83238,0.37742 4.55118,2.09318 6.2134,2.93942 0.77645,0.39529 1.46128,1.15892 1.45428,2.63006 -0.005,0.99509 0.008,3.97654 -0.01,5.07941 -0.009,0.57514 -0.2528,0.9273 -0.64033,1.33946 -0.60515,0.64362 -6.33212,6.74752 -7.01755,7.42942 -0.65974,-0.65691 -6.412416,-6.7858 -7.017569,-7.42942 z" />
        <circle
   class="stroke_me"
   style="display:none;fill:none;stroke:#000000;stroke-width:0.9;stroke-linecap:round;stroke-linejoin:round;stroke-dasharray:none;stroke-dashoffset:0;stroke-opacity:1"
   id="head"
   cx="100.84013"
   cy="-120.6467"
   transform="scale(1,-1)"
   r="3.7925103" />
        <path
   class="stroke_me"
   style="display:none;fill:none;stroke:#000000;stroke-width:0.9;stroke-linecap:round;stroke-linejoin:miter;stroke-dasharray:none;stroke-opacity:1"
   d="m 100.8279,131.39351 -0.0219,-5.33535"
   id="torso"
   sodipodi:nodetypes="cc" />
        <path
   class="stroke_me"
   style="display:none;fill:none;stroke:#000000;stroke-width:0.9;stroke-linecap:round;stroke-linejoin:miter;stroke-dasharray:none;stroke-opacity:1"
   d="m 105.82992,124.8967 -4.99244,3.16191 -4.99242,-3.15759"
   id="arms"
   sodipodi:nodetypes="ccc" />
        <path
   class="stroke_me"
   style="display:none;fill:none;stroke:#000000;stroke-width:0.7;stroke-linecap:round;stroke-linejoin:round;stroke-dasharray:none;stroke-dashoffset:0;stroke-opacity:1"
   id="smile"
   sodipodi:type="arc"
   sodipodi:cx="100.85252"
   sodipodi:cy="120.643"
   sodipodi:rx="1.9353358"
   sodipodi:ry="1.9353358"
   sodipodi:start="0.71558499"
   sodipodi:end="2.4085544"
   sodipodi:arc-type="arc"
   d="m 102.31314,121.91269 a 1.9353358,1.9353358 0 0 1 -1.44373,0.66557 1.9353358,1.9353358 0 0 1 -1.455121,-0.64027"
   sodipodi:open="true"
   inkscape:label="" />
        
        <circle
   class="fill_me"
   style="display:none;fill-opacity:1;stroke:none;stroke-width:0.119832;stroke-linecap:round;stroke-linejoin:round;stroke-dasharray:none;stroke-dashoffset:0;stroke-opacity:1"
   id="right_eye"
   cx="102.14069"
   cy="119.67895"
   r="0.55903959" />
    <circle
   class="fill_me"
   style="display:none;fill-opacity:1;stroke:none;stroke-width:0.119832;stroke-linecap:round;stroke-linejoin:round;stroke-dasharray:none;stroke-dashoffset:0;stroke-opacity:1"
   id="left_eye"
   cx="99.604233"
   cy="119.67895"
   r="0.55903959" /></g>
</svg>
