<?xml version="1.0" encoding="UTF-8" standalone="no"?>
<!-- Created with Inkscape (http://www.inkscape.org/) -->

<svg width="16.235689mm" height="20.317745mm" viewBox="0 0 16.235689 20.317745" version="1.1" id="svg5" xml:space="preserve" inkscape:version="1.2.2 (b0a8486541, 2022-12-01)" sodipodi:docname="dgwf_logo.prev.svg"
     xmlns:inkscape="http://www.inkscape.org/namespaces/inkscape"
     xmlns:sodipodi="http://sodipodi.sourceforge.net/DTD/sodipodi-0.dtd"
     xmlns="http://www.w3.org/2000/svg"
     xmlns:svg="http://www.w3.org/2000/svg">
     <sodipodi:namedview id="namedview7" pagecolor="#505050" bordercolor="#eeeeee" borderopacity="1" inkscape:showpageshadow="0" inkscape:pageopacity="0" inkscape:pagecheckerboard="0" inkscape:deskcolor="#505050" inkscape:document-units="mm" showgrid="false" inkscape:zoom="11.313709" inkscape:cx="40.791221" inkscape:cy="42.779958" inkscape:window-width="1866" inkscape:window-height="1333" inkscape:window-x="936" inkscape:window-y="328" inkscape:window-maximized="0" inkscape:current-layer="layer1" />
     <defs id="defs2">
          <inkscape:path-effect effect="powerstroke" id="path-effect848" is_visible="true" lpeversion="1" offset_points="5.4303556,0.79932286 | 9.0803059,0.15434546 | 4.0886237,0.24079283 | 2.7713522,0.72139944" not_jump="false" sort_points="true" interpolator_type="CentripetalCatmullRom" interpolator_beta="0.25454545" start_linecap_type="zerowidth" linejoin_type="round" miter_limit="4" scale_width="1" end_linecap_type="zerowidth" />
     </defs>
     <g inkscape:label="Layer 1" inkscape:groupmode="layer" id="layer1" style="display:inline" transform="translate(-92.706589,-113.43331)">
          <path class="fill_me" style="display:inline;fill-opacity:1;fill-rule:nonzero;stroke:none;stroke-width:0.9;stroke-linecap:butt;stroke-linejoin:round;stroke-dasharray:none;stroke-dashoffset:0;stroke-opacity:1" d="m 94.017201,125.67382 c -0.06338,-0.0818 -0.141208,-0.19275 -0.205828,-0.31124 -0.04906,-0.09 -0.09029,-0.18352 -0.118331,-0.2815 -0.02421,-0.0846 -0.03814,-0.17064 -0.04157,-0.26419 -0.0031,-0.0854 0.0023,-0.18127 0.01882,-0.29282 0.0133,-0.26615 0.02828,-0.65647 0.04408,-1.11256 0.01545,-0.44628 0.03156,-0.95243 0.04738,-1.45919 0.04061,-1.30081 0.0043,-0.13994 0.04495,-1.44076 0.01426,-0.448 0.02642,-0.81 0.03635,-1.06201 0.0099,-0.32215 0.05685,-0.58119 0.119663,-0.7899 0.06727,-0.2235 0.155284,-0.39785 0.244868,-0.53618 0.101583,-0.15686 0.214458,-0.28143 0.321564,-0.38317 0.01023,-0.01 0.02045,-0.0193 0.03065,-0.0286 0.114417,-0.1053 0.234952,-0.20183 0.356402,-0.2897 0.401734,-0.23489 0.950921,-0.54667 1.481479,-0.8456 0.568331,-0.32022 1.211062,-0.67956 1.775472,-0.99268 0.598189,-0.33185 1.164776,-0.64314 1.647562,-0.90303 0.239559,-0.12895 0.457049,-0.24449 0.645729,-0.34273 0.13996,-0.0729 0.26307,-0.1357 0.3651,-0.1862 0.0527,0.0231 0.11242,0.0501 0.17868,0.0809 0.0476,0.0221 0.098,0.0459 0.15088,0.0713 0.18677,0.0896 0.40365,0.19785 0.64056,0.31946 0.49487,0.25402 1.06563,0.56019 1.66133,0.88896 0.58988,0.32556 1.21626,0.67996 1.79516,1.01547 0.53976,0.31283 1.08081,0.63395 1.47936,0.88506 0.12623,0.10872 0.24643,0.22741 0.35694,0.35683 0.0719,0.0842 0.14285,0.17661 0.20975,0.27733 0.0244,0.0367 0.0488,0.0756 0.0729,0.11702 0.0769,0.13219 0.15741,0.30125 0.21939,0.51939 0.056,0.19709 0.10077,0.44754 0.10946,0.76561 0.002,0.0501 0.0329,1.01224 0.0346,1.06251 -0.0249,-0.77733 0.0716,2.21812 0.0467,1.44078 0.0164,0.49398 0.0341,1.00647 0.0513,1.45885 0.0169,0.44284 0.0338,0.84116 0.0492,1.11131 0.0179,0.1019 0.027,0.19211 0.0274,0.27385 4.4e-4,0.0828 -0.008,0.16368 -0.0287,0.24852 -0.0213,0.0868 -0.0554,0.17675 -0.10474,0.2746 -0.0507,0.10033 -0.11508,0.20441 -0.19178,0.31539 -0.0344,0.0441 -0.0887,0.10929 -0.16005,0.19255 -0.0721,0.0842 -0.16156,0.18672 -0.26524,0.30432 -0.2112,0.23956 -0.48203,0.54221 -0.78687,0.88041 -0.63649,0.70616 -1.4347,1.58222 -2.1835,2.40088 -0.81737,0.89364 -1.61786,1.76483 -2.2049,2.40171 -0.32779,0.35562 -0.60334,0.65373 -0.81396,0.88067 -0.11225,0.12095 -0.20661,0.22228 -0.28289,0.30377 -0.0804,0.086 -0.13951,0.1485 -0.17948,0.19014 l 0.22243,5e-5 c -0.0207,-0.0196 -0.0465,-0.0449 -0.0763,-0.0747 -0.0308,-0.0307 -0.0659,-0.0663 -0.10461,-0.10585 -0.0226,-0.0231 -0.0464,-0.0476 -0.0713,-0.0733 -0.0634,-0.0654 -0.13501,-0.14003 -0.2137,-0.22244 -0.22474,-0.23537 -0.506794,-0.53437 -0.819908,-0.86854 -0.669528,-0.71455 -1.475306,-1.58371 -2.218771,-2.39112 -0.881238,-0.95703 -1.633486,-1.78195 -2.19394,-2.40268 -0.342911,-0.37978 -0.599922,-0.66745 -0.789999,-0.88238 -0.113297,-0.12811 -0.200105,-0.2273 -0.266859,-0.30426 -0.08192,-0.0944 -0.131822,-0.15331 -0.162944,-0.19029 z m -0.420838,0.39568 c 0.0349,0.0332 0.09049,0.0866 0.179634,0.17428 0.07269,0.0715 0.166164,0.1642 0.287006,0.28533 0.203303,0.20378 0.473108,0.47696 0.831593,0.84345 0.594999,0.60828 1.351833,1.38928 2.264651,2.33678 0.778813,0.8084 1.561324,1.62396 2.260291,2.35332 0.195957,0.20448 0.631322,0.65905 0.827272,0.86353 -0.0153,-0.0159 0.22948,0.23946 0.21422,0.22353 0.003,0.003 0.0681,0.071 0.0713,0.0744 0.0205,0.0214 0.0838,0.0874 0.10424,0.10883 -0.018,-0.0188 0.0946,0.0987 0.0766,0.0799 a 0.15407843,0.16102798 46.275775 0 0 0.22243,5e-5 c 0.0439,-0.0418 0.10712,-0.1039 0.19075,-0.18734 0.0798,-0.0796 0.17761,-0.17812 0.2939,-0.29598 0.22011,-0.22309 0.5003,-0.50936 0.84014,-0.85812 0.65043,-0.66752 1.38315,-1.42388 2.27174,-2.3404 0.76569,-0.78977 1.60456,-1.65448 2.26303,-2.32687 0.31852,-0.32525 0.60384,-0.61472 0.82961,-0.84044 0.11086,-0.11084 0.20763,-0.20657 0.28708,-0.28377 0.0786,-0.0763 0.14033,-0.13466 0.18196,-0.17147 0.11292,-0.0912 0.22684,-0.18694 0.33277,-0.2892 0.10401,-0.10039 0.20466,-0.21111 0.29493,-0.33804 0.0897,-0.12606 0.16767,-0.26614 0.22908,-0.42524 0.0612,-0.15859 0.10337,-0.32948 0.12614,-0.51448 0.0245,-0.28223 0.0464,-0.67846 0.0661,-1.12628 0.0201,-0.45565 0.038,-0.96785 0.0541,-1.4634 0.01,-0.30636 0.0348,-1.1347 0.0447,-1.44106 0.014,-0.45243 0.0261,-0.81376 0.0369,-1.05402 0.0124,-0.44777 -0.0331,-0.84115 -0.12072,-1.18659 -0.0978,-0.38559 -0.24637,-0.70503 -0.41712,-0.96556 -0.0522,-0.0797 -0.10637,-0.15363 -0.16155,-0.22208 -0.15287,-0.18967 -0.31935,-0.34267 -0.48609,-0.46509 -0.25412,-0.18656 -0.51525,-0.30708 -0.75462,-0.38483 -0.46256,-0.18645 -1.03599,-0.41056 -1.63072,-0.64138 -0.63243,-0.24544 -1.29632,-0.50135 -1.93054,-0.74912 -0.63727,-0.24896 -1.23615,-0.48645 -1.75319,-0.69983 -0.24658,-0.10177 -0.47021,-0.19628 -0.66037,-0.27965 -0.0539,-0.0236 -0.10495,-0.0463 -0.15294,-0.0679 -0.11762,-0.053 -0.21311,-0.0979 -0.28514,-0.13401 a 0.21302591,0.26445129 51.499198 0 0 -0.19914,-0.001 c -0.12363,0.0493 -0.28582,0.11306 -0.48171,0.1895 -0.20171,0.0787 -0.427643,0.1664 -0.684514,0.26593 -0.498769,0.19326 -1.131814,0.43795 -1.756768,0.68244 -0.621614,0.24318 -1.272056,0.50046 -1.899271,0.75531 -0.583819,0.23721 -1.143507,0.47072 -1.598022,0.67086 -0.216311,0.0841 -0.445275,0.20471 -0.665707,0.37625 -0.01954,0.0152 -0.03915,0.0309 -0.0588,0.0471 -0.208119,0.17132 -0.423335,0.39982 -0.608742,0.69834 -0.164028,0.26408 -0.301779,0.57827 -0.391647,0.94876 -0.08335,0.34365 -0.124,0.7293 -0.110517,1.16213 0.01214,0.24285 0.02471,0.61093 0.03831,1.0547 0.01279,0.4174 0.02998,1.02367 0.04277,1.44107 0.01543,0.50809 0.03191,1.01408 0.05011,1.46306 0.01866,0.46056 0.03865,0.84958 0.06076,1.12544 0.02153,0.18438 0.06223,0.34799 0.117764,0.49511 0.06019,0.15946 0.135763,0.29404 0.216137,0.40957 0.09145,0.13146 0.191425,0.2413 0.281216,0.33115 0.112903,0.11298 0.243811,0.22667 0.318637,0.29334 z" id="flight" sodipodi:nodetypes="sssscsssscs" inkscape:path-effect="#path-effect848" inkscape:original-d="m 93.806781,125.87166 c -0.387522,-0.41216 -0.631051,-0.76432 -0.640328,-1.33946 -0.01779,-1.10287 -0.0049,-4.08432 -0.0096,-5.07941 -0.007,-1.47114 0.677834,-2.23477 1.454278,-2.63006 1.66222,-0.84624 5.2723,-2.52655 6.213419,-2.93942 0.83238,0.37742 4.55118,2.09318 6.2134,2.93942 0.77645,0.39529 1.46128,1.15892 1.45428,2.63006 -0.005,0.99509 0.008,3.97654 -0.01,5.07941 -0.009,0.57514 -0.2528,0.9273 -0.64033,1.33946 -0.60515,0.64362 -6.33212,6.74752 -7.01755,7.42942 -0.65974,-0.65691 -6.412416,-6.7858 -7.017569,-7.42942 z" />
          <circle class="stroke_me" style="fill:none;stroke-width:0.9;stroke-linecap:round;stroke-linejoin:round;stroke-dasharray:none;stroke-dashoffset:0;stroke-opacity:1" id="head" cx="100.84013" cy="-120.6467" transform="scale(1,-1)" r="3.7925103" />
          <path class="stroke_me" style="fill:none;stroke-width:0.9;stroke-linecap:round;stroke-linejoin:miter;stroke-dasharray:none;stroke-opacity:1" d="m 100.8279,131.39351 -0.0219,-5.33535" id="torso" sodipodi:nodetypes="cc" />
          <path class="stroke_me" style="fill:none;stroke-width:0.9;stroke-linecap:round;stroke-linejoin:miter;stroke-dasharray:none;stroke-opacity:1" d="m 105.82992,124.8967 -4.99244,3.16191 -4.99242,-3.15759" id="arms" sodipodi:nodetypes="ccc" />
          <path class="stroke_me" style="fill:none;stroke-width:0.7;stroke-linecap:round;stroke-linejoin:round;stroke-dasharray:none;stroke-dashoffset:0;stroke-opacity:1" id="smile" sodipodi:type="arc" sodipodi:cx="100.85252" sodipodi:cy="120.643" sodipodi:rx="1.9353358" sodipodi:ry="1.9353358" sodipodi:start="0.71558499" sodipodi:end="2.4085544" sodipodi:arc-type="arc" d="m 102.31314,121.91269 a 1.9353358,1.9353358 0 0 1 -1.44373,0.66557 1.9353358,1.9353358 0 0 1 -1.455121,-0.64027" sodipodi:open="true" inkscape:label="" />

          <circle class="fill_me" style="fill-opacity:1;stroke:none;stroke-width:0.119832;stroke-linecap:round;stroke-linejoin:round;stroke-dasharray:none;stroke-dashoffset:0;stroke-opacity:1" id="right_eye" cx="102.14069" cy="119.67895" r="0.55903959" />
          <circle class="fill_me" style="fill-opacity:1;stroke:none;stroke-width:0.119832;stroke-linecap:round;stroke-linejoin:round;stroke-dasharray:none;stroke-dashoffset:0;stroke-opacity:1" id="left_eye" cx="99.604233" cy="119.67895" r="0.55903959" />
     </g>
</svg>
