<?xml version="1.0" encoding="UTF-8" standalone="no"?>
<!-- Created with Inkscape (http://www.inkscape.org/) -->

<svg width="16.235689mm" height="20.317745mm" viewBox="0 0 16.235689 20.317745" version="1.1" id="svg5" xml:space="preserve" inkscape:version="1.2.2 (b0a8486541, 2022-12-01)" sodipodi:docname="dgwf_logo.svg"
     xmlns:inkscape="http://www.inkscape.org/namespaces/inkscape"
     xmlns:sodipodi="http://sodipodi.sourceforge.net/DTD/sodipodi-0.dtd"
     xmlns="http://www.w3.org/2000/svg"
     xmlns:svg="http://www.w3.org/2000/svg">
     <sodipodi:namedview id="namedview7" pagecolor="#505050" bordercolor="#eeeeee" borderopacity="1" inkscape:showpageshadow="0" inkscape:pageopacity="0" inkscape:pagecheckerboard="0" inkscape:deskcolor="#505050" inkscape:document-units="mm" showgrid="false" inkscape:zoom="11.313709" inkscape:cx="40.791221" inkscape:cy="42.779958" inkscape:window-width="1866" inkscape:window-height="1333" inkscape:window-x="936" inkscape:window-y="328" inkscape:window-maximized="0" inkscape:current-layer="layer1" />
     <defs id="defs2" />
     <g inkscape:label="Layer 1" inkscape:groupmode="layer" id="layer1" style="display:inline" transform="translate(-92.706589,-113.43331)">
          <path class="stroke_me" style="display:inline;fill:none;stroke-width:0.9;stroke-linecap:butt;stroke-linejoin:round;stroke-dasharray:none;stroke-dashoffset:0;stroke-opacity:1;fill-opacity:1" d="m 93.806781,125.87166 c -0.387522,-0.41216 -0.631051,-0.76432 -0.640328,-1.33946 -0.01779,-1.10287 -0.0049,-4.08432 -0.0096,-5.07941 -0.007,-1.47114 0.677834,-2.23477 1.454278,-2.63006 1.66222,-0.84624 6.213419,-2.93942 6.213419,-2.93942 0,0 4.55118,2.09318 6.2134,2.93942 0.77645,0.39529 1.46128,1.15892 1.45428,2.63006 -0.005,0.99509 0.008,3.97654 -0.01,5.07941 -0.009,0.57514 -0.2528,0.9273 -0.64033,1.33946 -0.60515,0.64362 -7.01755,7.42942 -7.01755,7.42942 0,0 -6.412416,-6.7858 -7.017569,-7.42942 z" id="path243" sodipodi:nodetypes="sssscsssscs" />
          <circle class="stroke_me" style="fill:none;stroke-width:0.9;stroke-linecap:round;stroke-linejoin:round;stroke-dasharray:none;stroke-dashoffset:0;stroke-opacity:1" id="path1073" cx="100.80757" cy="-122.16545" transform="scale(1,-1)" r="4.9093461" />


          <path class="stroke_me" style="fill:none;stroke-width:0.9;stroke-linecap:round;stroke-linejoin:round;stroke-dasharray:none;stroke-dashoffset:0;stroke-opacity:1" id="smile" sodipodi:type="arc" sodipodi:cx="100.82361" sodipodi:cy="122.16068" sodipodi:rx="2.5052624" sodipodi:ry="2.5052624" sodipodi:start="0.71558499" sodipodi:end="2.4085544" sodipodi:arc-type="arc" d="m 102.71435,123.80428 a 2.5052624,2.5052624 0 0 1 -1.86888,0.86157 2.5052624,2.5052624 0 0 1 -1.883634,-0.82882" sodipodi:open="true" inkscape:label="" />
          <circle class="fill_me" style="fill-opacity:1;stroke:none;stroke-width:0.155121;stroke-linecap:round;stroke-linejoin:round;stroke-dasharray:none;stroke-dashoffset:0;stroke-opacity:1" id="path1299" cx="99.282341" cy="120.91274" r="0.7236681" />
          <circle class="fill_me" style="fill-opacity:1;stroke:none;stroke-width:0.155121;stroke-linecap:round;stroke-linejoin:round;stroke-dasharray:none;stroke-dashoffset:0;stroke-opacity:1" id="circle1301" cx="102.49114" cy="120.91274" r="0.7236681" />
     </g>
</svg>
