<?xml version="1.0" encoding="UTF-8" standalone="no"?>
<!-- Created with Inkscape (http://www.inkscape.org/) -->

<svg width="16.235689mm" height="20.317745mm" viewBox="0 0 16.235689 20.317745" version="1.1" id="svg5" xml:space="preserve" inkscape:version="1.2.2 (b0a8486541, 2022-12-01)" sodipodi:docname="dgwf_logo.svg"
    xmlns:inkscape="http://www.inkscape.org/namespaces/inkscape"
    xmlns:sodipodi="http://sodipodi.sourceforge.net/DTD/sodipodi-0.dtd"
    xmlns="http://www.w3.org/2000/svg"
    xmlns:svg="http://www.w3.org/2000/svg">
    <sodipodi:namedview id="namedview7" pagecolor="#505050" bordercolor="#eeeeee" borderopacity="1" inkscape:showpageshadow="0" inkscape:pageopacity="0" inkscape:pagecheckerboard="0" inkscape:deskcolor="#505050" inkscape:document-units="mm" showgrid="false" inkscape:zoom="11.313709" inkscape:cx="41.498327" inkscape:cy="42.779958" inkscape:window-width="1866" inkscape:window-height="1333" inkscape:window-x="936" inkscape:window-y="328" inkscape:window-maximized="0" inkscape:current-layer="layer1" />
    <defs id="defs2" />
    <g inkscape:label="Layer 1" inkscape:groupmode="layer" id="layer1" style="display:inline" transform="translate(-92.706589,-113.43331)">
        <path class="stroke_me" style="display:inline;fill:none;stroke-width:0.9;stroke-linecap:butt;stroke-linejoin:round;stroke-dasharray:none;stroke-dashoffset:0;stroke-opacity:1" d="m 93.806781,125.87166 c -0.387522,-0.41216 -0.631051,-0.76432 -0.640328,-1.33946 -0.01779,-1.10287 -0.0049,-4.08432 -0.0096,-5.07941 -0.007,-1.47114 0.677834,-2.23477 1.454278,-2.63006 1.66222,-0.84624 6.213419,-2.93942 6.213419,-2.93942 0,0 4.55118,2.09318 6.2134,2.93942 0.77645,0.39529 1.46128,1.15892 1.45428,2.63006 -0.005,0.99509 0.008,3.97654 -0.01,5.07941 -0.009,0.57514 -0.2528,0.9273 -0.64033,1.33946 -0.60515,0.64362 -7.01755,7.42942 -7.01755,7.42942 0,0 -6.412416,-6.7858 -7.017569,-7.42942 z" id="path243" sodipodi:nodetypes="sssscsssscs" />
        <circle class="stroke_me" style="fill:none;stroke-width:0.899999;stroke-linecap:round;stroke-linejoin:round;stroke-dasharray:none;stroke-dashoffset:0" id="path1073" cx="100.80757" cy="-119.67635" transform="scale(1,-1)" r="3.1648486" />
        <path class="stroke_me" style="fill:none;stroke-width:0.9;stroke-linecap:butt;stroke-linejoin:miter;stroke-dasharray:none;stroke-opacity:1" d="m 100.82597,133.30468 -0.0181,-10.46313" id="path1075" sodipodi:nodetypes="cc" />
        <path class="stroke_me" style="fill:none;stroke-width:0.9;stroke-linecap:round;stroke-linejoin:miter;stroke-dasharray:none;stroke-opacity:1" d="m 105.82992,123.98938 -4.99244,3.16191 -4.99242,-3.15759" id="path1079" sodipodi:nodetypes="ccc" />
        <path class="stroke_me" style="fill:none;stroke-width:0.7;stroke-linecap:round;stroke-linejoin:round;stroke-dasharray:none;stroke-dashoffset:0" id="smile" sodipodi:type="arc" sodipodi:cx="100.81792" sodipodi:cy="119.67326" sodipodi:rx="1.6150371" sodipodi:ry="1.6150371" sodipodi:start="0.71558499" sodipodi:end="2.4085544" sodipodi:arc-type="arc" d="m 102.0368,120.73282 a 1.6150371,1.6150371 0 0 1 -1.20479,0.55542 1.6150371,1.6150371 0 0 1 -1.2143,-0.53431" sodipodi:open="true" inkscape:label="" />
        <circle class="fill_me" style="fill-opacity:1;stroke:none;stroke-width:0.1;stroke-linecap:round;stroke-linejoin:round;stroke-dasharray:none;stroke-dashoffset:0;stroke-opacity:1" id="path1299" cx="99.824318" cy="118.86877" r="0.46651837" />
        <circle class="fill_me" style="fill-opacity:1;stroke:none;stroke-width:0.1;stroke-linecap:round;stroke-linejoin:round;stroke-dasharray:none;stroke-dashoffset:0;stroke-opacity:1" id="circle1301" cx="101.8929" cy="118.86877" r="0.46651837" />
    </g>
</svg>
